<?xml version="1.0" encoding="utf-8"?>
<!-- Generator: Adobe Illustrator 27.5.0, SVG Export Plug-In . SVG Version: 6.00 Build 0)  -->
<svg version="1.1" xmlns="http://www.w3.org/2000/svg" xmlns:xlink="http://www.w3.org/1999/xlink" x="0px" y="0px"
	 viewBox="0 0 1122 1122" style="enable-background:new 0 0 1122 1122;" xml:space="preserve">
<g id="Bg">
	<rect style="fill:#FFFFFF;" width="1122" height="1122"/>
</g>
<g id="Object">
	<g>
		<path style="fill:none;" d="M710.26,447.943c-65.607-4.85-245.69-47.037-245.69-47.037c-10.922,19.376-39.405,43.999-61.669,59.79
			c-0.786,3.46-1.578,6.915-2.126,10.446c-1.196,7.627-2.014,15.352-2.014,23.293c0,5.65,0.361,11.23,0.994,16.739
			c1.031,9.423,3.008,18.549,5.735,27.406c19.856,64.565,82.003,111.857,155.529,111.857c73.494,0,135.647-47.31,155.492-111.875
			c2.732-8.839,4.698-17.964,5.772-27.387c0.59-5.509,0.957-11.09,0.957-16.739c0-7.94-0.818-15.665-2.009-23.274
			c-1.254-7.887-3.189-15.535-5.602-22.997C713.922,448.148,712.153,448.073,710.26,447.943z M711.111,475.02l-15.031,53.696
			c-0.776,2.801-3.295,4.704-6.197,4.704h-89.141c-3.083,0-5.73-2.158-6.314-5.177l-6.197-30.882
			c-1.361-1.959-4.039-4.045-8.185-5.653c-5.113-2.014-11.958-3.167-18.82-3.149c-6.93-0.018-13.909,1.153-19.128,3.202
			c-4.231,1.611-6.979,3.731-8.371,5.671l-6.149,30.81c-0.617,3.019-3.253,5.177-6.319,5.177h-89.136
			c-2.891,0-5.421-1.903-6.208-4.704l-15.041-53.696c-0.537-1.956-0.138-4.024,1.074-5.634c1.243-1.61,3.125-2.543,5.156-2.543
			H532.01c1.924,0,3.758,0.858,4.985,2.362c1.222,1.499,1.701,3.436,1.334,5.339l-0.962,4.796
			c7.229-2.785,15.541-4.063,23.859-4.082c8.164,0.019,16.279,1.263,23.391,3.991l-0.946-4.706c-0.377-1.903,0.117-3.84,1.339-5.339
			c1.222-1.504,3.051-2.362,4.986-2.362h114.907c2.025,0,3.912,0.932,5.134,2.543C711.249,470.996,711.653,473.064,711.111,475.02z"
			/>
		<path style="fill:none;" d="M524.144,479.724h-98.559l11.416,40.818h78.979l5.278-26.33l-0.707-0.274
			c0.298-0.731,0.776-1.315,1.142-1.974L524.144,479.724z"/>
		<path style="fill:none;" d="M372.5,465.49c-9.025,1.446-15.977,8.855-15.977,17.946v14.401c0,9.256,7.154,16.832,16.386,18.113
			c-0.872-7.063-1.435-14.217-1.435-21.514c0-6.277,0.521-12.408,1.292-18.48C372.681,472.442,372.559,469.003,372.5,465.49z"/>
		<path style="fill:none;" d="M606.025,520.542h78.963l11.427-40.818h-98.554l2.434,12.166c0.378,0.694,0.872,1.3,1.17,2.068
			l-0.723,0.274L606.025,520.542z"/>
		<path style="fill:none;" d="M765.503,497.837v-14.401c0-8.451-6.059-15.387-14.148-17.507c-0.712,2.617-1.531,5.139-2.349,7.701
			c0.872,6.827,1.52,13.739,1.52,20.805c0,7.297-0.563,14.451-1.435,21.514C758.339,514.669,765.503,507.093,765.503,497.837z"/>
		<path style="fill:#616E7D;" d="M293,815.645v78.982h536v-78.982c0-89.864-74.265-162.736-165.872-162.736h-8.919
			c43.263-23.694,75.971-63.228,89.422-110.413h2.727c25.602,0,46.431-20.035,46.431-44.658v-14.401
			c0-21.35-15.679-39.131-36.524-43.521c0.745-6.426,1.244-12.92,1.244-19.543l-0.079-1.866c0.021-4.738-0.133-9.625-0.76-14.874
			v-0.019c-2.859-30.444-13.473-58.636-29.827-82.588c-8.451-12.347-18.506-23.473-29.721-33.279
			c-29.976-26.216-68.88-42.405-111.591-43.452l-2.153-1.698c-1.844-2.011-3.853-2.378-5.224-2.378c-3.211,0-5.442,2.121-7.26,3.877
			h-0.59c-10.306-10.337-18.055-16.723-24.719-16.723h-0.037c-6.346,0.476-36.061,11.033-45.554,18.169
			c-2.115,1.573-4.475,3.619-6.994,5.854c-72.973,21.549-126.271,89.008-126.271,168.976c0,1.207,0.096,2.413,0.128,3.625
			c-0.091,5.376,0.085,10.683,0.595,15.918c-21.663,3.75-38.24,21.621-38.24,43.521v14.401c0,24.624,20.829,44.658,46.425,44.658
			h2.732c13.441,47.185,46.165,86.72,89.428,110.413h-8.929C367.26,652.909,293,725.781,293,815.645z M751.355,465.929
			c8.089,2.12,14.148,9.057,14.148,17.507v14.401c0,9.256-7.164,16.832-16.412,18.113c0.871-7.063,1.435-14.217,1.435-21.514
			c0-7.066-0.648-13.978-1.52-20.805C749.824,471.068,750.643,468.546,751.355,465.929z M356.523,497.837v-14.401
			c0-9.091,6.952-16.5,15.977-17.946c0.058,3.513,0.181,6.952,0.266,10.465c-0.771,6.072-1.292,12.203-1.292,18.48
			c0,7.297,0.563,14.451,1.435,21.514C363.678,514.669,356.523,507.093,356.523,497.837z M560.997,745.573
			c-48.621,0-88.041-39.407-88.041-88.036c0-0.714,0.058-1.209,0.085-1.849c3.556,1.812,7.138,3.566,10.827,5.161
			c23.566,10.154,49.662,15.844,77.15,15.844c27.457,0,53.553-5.671,77.119-15.844c3.672-1.594,7.276-3.348,10.821-5.139
			c0.032,0.619,0.085,1.114,0.085,1.828C649.044,706.167,609.618,745.573,560.997,745.573z M405.49,538.58
			c-2.727-8.857-4.704-17.983-5.735-27.406c-0.632-5.509-0.994-11.09-0.994-16.739c0-7.94,0.818-15.665,2.014-23.293
			c0.548-3.532,1.339-6.986,2.126-10.446c22.264-15.791,50.746-40.414,61.669-59.79c0,0,180.083,42.187,245.69,47.037
			c1.892,0.13,3.662,0.205,5.368,0.22c2.413,7.462,4.348,15.11,5.602,22.997c1.191,7.609,2.009,15.334,2.009,23.274
			c0,5.65-0.367,11.23-0.957,16.739c-1.074,9.423-3.04,18.549-5.772,27.387c-19.845,64.565-81.998,111.875-155.492,111.875
			C487.493,650.437,425.346,603.146,405.49,538.58z"/>
		<path style="fill:#FFFFFF;" d="M483.868,660.849c0.861,20.035,9.195,38.089,22.46,51.353
			c14.01,14.015,33.292,22.652,54.669,22.652c21.366,0,40.659-8.637,54.68-22.652c13.266-13.263,21.6-31.318,22.461-51.353
			c-23.566,10.173-49.662,15.844-77.119,15.844C533.53,676.693,507.434,671.003,483.868,660.849z"/>
		<path style="fill:#AAD4C8;" d="M615.677,712.202c-14.021,14.015-33.314,22.652-54.68,22.652c-21.376,0-40.659-8.637-54.669-22.652
			c-13.266-13.263-21.599-31.318-22.46-51.353c-3.689-1.594-7.271-3.348-10.827-5.161c-0.027,0.641-0.085,1.135-0.085,1.849
			c0,48.629,39.42,88.036,88.041,88.036c48.62,0,88.047-39.407,88.047-88.036c0-0.714-0.053-1.209-0.085-1.828
			c-3.545,1.791-7.148,3.545-10.821,5.139C637.277,680.884,628.943,698.938,615.677,712.202z"/>
		<path style="fill:#AAD4C8;" d="M536.996,469.205c-1.228-1.504-3.061-2.362-4.985-2.362H417.103c-2.031,0-3.912,0.932-5.156,2.543
			c-1.212,1.61-1.611,3.678-1.074,5.634l15.041,53.696c0.786,2.801,3.317,4.704,6.208,4.704h89.136c3.066,0,5.703-2.158,6.319-5.177
			l6.149-30.81c1.392-1.94,4.14-4.06,8.371-5.671c5.219-2.049,12.198-3.221,19.128-3.202c6.862-0.018,13.707,1.135,18.82,3.149
			c4.146,1.608,6.824,3.694,8.185,5.653l6.197,30.882c0.585,3.019,3.232,5.177,6.314,5.177h89.141c2.902,0,5.421-1.903,6.197-4.704
			l15.031-53.696c0.542-1.956,0.138-4.024-1.074-5.634c-1.222-1.61-3.109-2.543-5.134-2.543H589.996
			c-1.935,0-3.763,0.858-4.986,2.362c-1.222,1.499-1.717,3.436-1.339,5.339l0.946,4.706c-7.112-2.729-15.227-3.972-23.391-3.991
			c-8.318,0.019-16.63,1.297-23.859,4.082l0.962-4.796C538.696,472.642,538.218,470.704,536.996,469.205z M521.694,491.964
			c-0.366,0.659-0.845,1.243-1.142,1.974l0.707,0.274l-5.278,26.33h-78.979l-11.416-40.818h98.559L521.694,491.964z
			 M696.415,479.724l-11.427,40.818h-78.963l-5.283-26.312l0.723-0.274c-0.298-0.768-0.792-1.374-1.17-2.068l-2.434-12.166H696.415z
			"/>
	</g>
</g>
</svg>
